<?xml version="1.0" encoding="UTF-8" standalone="no"?>
<svg
   width="90.777"
   height="83.089"
   viewBox="0 0 24.018 21.984"
   version="1.1"
   id="svg35"
   sodipodi:docname="shopping-cart-dark-mode.svg"
   inkscape:version="1.2.2 (b0a8486541, 2022-12-01, custom)"
   xmlns:inkscape="http://www.inkscape.org/namespaces/inkscape"
   xmlns:sodipodi="http://sodipodi.sourceforge.net/DTD/sodipodi-0.dtd"
   xmlns:xlink="http://www.w3.org/1999/xlink"
   xmlns="http://www.w3.org/2000/svg"
   xmlns:svg="http://www.w3.org/2000/svg">
  <sodipodi:namedview
     id="namedview37"
     pagecolor="#505050"
     bordercolor="#eeeeee"
     borderopacity="1"
     inkscape:showpageshadow="0"
     inkscape:pageopacity="0"
     inkscape:pagecheckerboard="0"
     inkscape:deskcolor="#505050"
     showgrid="false"
     inkscape:zoom="4.7419034"
     inkscape:cx="45.551328"
     inkscape:cy="47.554743"
     inkscape:window-width="1846"
     inkscape:window-height="1016"
     inkscape:window-x="0"
     inkscape:window-y="0"
     inkscape:window-maximized="1"
     inkscape:current-layer="svg35" />
  <style
     id="style2"><![CDATA[.B{stroke-linejoin:round}.C{stroke-width:.763}.D{stroke-linecap:round}]]></style>
  <path
     d="M31.43 44.888l13.323 26.501"
     id="path4" />
  <path
     d="M27.524 51.84l98.788-.291"
     id="path6" />
  <use
     xlink:href="#B"
     id="use8"
     style="stroke:none;stroke-opacity:1;fill:#ffffff;fill-opacity:1" />
  <use
     xlink:href="#B"
     x="10.926"
     id="use10"
     style="fill:#ffffff;fill-opacity:1" />
  <g
     stroke="#000000"
     id="g16"
     style="fill:none;stroke-linejoin:round;stroke:#ffffff;stroke-opacity:1">
    <path
       d="m 9.095,10.844 10.743,0.051 M 9.017,13.919 19.76,13.97"
       stroke-width="0.868"
       id="path12"
       style="stroke:#ffffff;stroke-opacity:1" />
    <path
       d="M 0.411,0.827 6.371,4.091 6.273,15.027"
       class="C D"
       id="path14"
       style="stroke:#ffffff;stroke-opacity:1" />
  </g>
  <path
     d="m 12.452,7.375 c 1.87,-9.646 9.473,-9.102 5.778,0.055"
     stroke="#3472f0"
     class="C"
     id="path18"
     style="fill:none;stroke-linejoin:round" />
  <g
     stroke="#000000"
     id="g28"
     style="fill:none;stroke-linejoin:round;fill-opacity:1;stroke:#ffffff;stroke-opacity:1">
    <g
       class="D"
       id="g24"
       style="fill:none;fill-opacity:1;stroke:#ffffff;stroke-opacity:1">
      <path
         d="m 6.369,7.486 17.237,0.052 -1.529,8.066"
         class="C"
         id="path20"
         style="fill:none;fill-opacity:1;stroke:#ffffff;stroke-opacity:1" />
      <path
         d="M 19.415,17.581 8.308,17.45"
         stroke-width="0.754"
         id="path22"
         style="fill:none;fill-opacity:1;stroke:#ffffff;stroke-opacity:1" />
    </g>
    <path
       d="m 6.275,15.017 c -0.066,2.163 1.153,2.484 2.734,2.445 M 22.083,15.57 c -0.309,1.591 -1.311,2.069 -2.831,2.003"
       class="C"
       id="path26"
       style="fill:none;fill-opacity:1;stroke:#ffffff;stroke-opacity:1" />
  </g>
  <defs
     id="defs33">
    <path
       id="B"
       d="M7.59 19.002c-.748 0-1.354.668-1.354 1.491a1.57 1.57 0 0 0 .396 1.055c.254.28.598.437.957.437s.704-.157.958-.437a1.57 1.57 0 0 0 .397-1.055 1.57 1.57 0 0 0-.397-1.054c-.254-.28-.598-.437-.958-.437zm.505.932l.003 1.118-.991-.005-.024-1.102z" />
  </defs>
</svg>
