<svg xmlns="http://www.w3.org/2000/svg" xmlns:xlink="http://www.w3.org/1999/xlink" width="90.777" height="83.089" viewBox="0 0 24.018 21.984" xmlns:v="https://vecta.io/nano"><style><![CDATA[.B{stroke-linejoin:round}.C{stroke-width:.763}.D{stroke-linecap:round}]]></style><path d="M31.43 44.888l13.323 26.501"/><path d="M27.524 51.84l98.788-.291"/><use xlink:href="#B"/><use xlink:href="#B" x="10.926"/><g fill="none" class="B"><g stroke="#000"><path d="M9.095 10.844l10.743.051M9.017 13.919l10.743.051" stroke-width=".868"/><path d="M.411.827l5.96 3.264-.098 10.936" class="C D"/></g><path d="M12.452 7.375c1.87-9.646 9.473-9.102 5.778.055" stroke="#3472f0" class="C"/><g stroke="#000"><g class="D"><path d="M6.369 7.486l17.237.052-1.529 8.066" class="C"/><path d="M19.415 17.581l-11.107-.131" stroke-width=".754"/></g><path d="M6.275 15.017c-.066 2.163 1.153 2.484 2.734 2.445m13.074-1.892c-.309 1.591-1.311 2.069-2.831 2.003" class="C"/></g></g><defs ><path id="B" d="M7.59 19.002c-.748 0-1.354.668-1.354 1.491a1.57 1.57 0 0 0 .396 1.055c.254.28.598.437.957.437s.704-.157.958-.437a1.57 1.57 0 0 0 .397-1.055 1.57 1.57 0 0 0-.397-1.054c-.254-.28-.598-.437-.958-.437zm.505.932l.003 1.118-.991-.005-.024-1.102z"/></defs></svg>