<?xml version="1.0" encoding="UTF-8" standalone="no"?>
<!-- Created with Inkscape (http://www.inkscape.org/) -->

<svg
   width="40mm"
   height="40mm"
   viewBox="0 0 40 40"
   version="1.1"
   id="svg5"
   xml:space="preserve"
   inkscape:version="1.2.1 (9c6d41e410, 2022-07-14)"
   sodipodi:docname="started-logo-1.svg"
   xmlns:inkscape="http://www.inkscape.org/namespaces/inkscape"
   xmlns:sodipodi="http://sodipodi.sourceforge.net/DTD/sodipodi-0.dtd"
   xmlns:xlink="http://www.w3.org/1999/xlink"
   xmlns="http://www.w3.org/2000/svg"
   xmlns:svg="http://www.w3.org/2000/svg"><sodipodi:namedview
     id="namedview7"
     pagecolor="#ffffff"
     bordercolor="#000000"
     borderopacity="0.25"
     inkscape:showpageshadow="2"
     inkscape:pageopacity="0.0"
     inkscape:pagecheckerboard="0"
     inkscape:deskcolor="#d1d1d1"
     inkscape:document-units="mm"
     showgrid="true"
     inkscape:zoom="3.2740517"
     inkscape:cx="169.51473"
     inkscape:cy="101.09798"
     inkscape:window-width="1920"
     inkscape:window-height="974"
     inkscape:window-x="-11"
     inkscape:window-y="-11"
     inkscape:window-maximized="1"
     inkscape:current-layer="layer1"
     showguides="false"><inkscape:grid
       type="xygrid"
       id="grid302"
       originx="0"
       originy="0" /></sodipodi:namedview><defs
     id="defs2"><linearGradient
       inkscape:collect="always"
       id="linearGradient8075"><stop
         style="stop-color:#4a3214;stop-opacity:1;"
         offset="0"
         id="stop8071" /><stop
         style="stop-color:#ddb996;stop-opacity:1;"
         offset="1"
         id="stop8073" /></linearGradient><linearGradient
       inkscape:collect="always"
       id="linearGradient5716"><stop
         style="stop-color:#b8733b;stop-opacity:1;"
         offset="0"
         id="stop5712" /><stop
         style="stop-color:#b8733b;stop-opacity:1"
         offset="0.661479"
         id="stop10348" /><stop
         style="stop-color:#e9d8c3;stop-opacity:0.76862746;"
         offset="0.83131838"
         id="stop5720" /><stop
         style="stop-color:#b8733b;stop-opacity:1;"
         offset="1"
         id="stop5714" /></linearGradient><linearGradient
       inkscape:collect="always"
       id="linearGradient5648"><stop
         style="stop-color:#b8733b;stop-opacity:1;"
         offset="0"
         id="stop5644" /><stop
         style="stop-color:#fff1f1;stop-opacity:1;"
         offset="0.50900322"
         id="stop5652" /><stop
         style="stop-color:#b8733b;stop-opacity:1;"
         offset="1"
         id="stop5646" /></linearGradient><linearGradient
       inkscape:collect="always"
       id="linearGradient5636"><stop
         style="stop-color:#b8733b;stop-opacity:1;"
         offset="0"
         id="stop5632" /><stop
         style="stop-color:#d4aa89;stop-opacity:1;"
         offset="0.57724029"
         id="stop5640" /><stop
         style="stop-color:#ffffff;stop-opacity:1;"
         offset="1"
         id="stop5634" /></linearGradient><linearGradient
       inkscape:collect="always"
       id="linearGradient1264"><stop
         style="stop-color:#b8733b;stop-opacity:1;"
         offset="0"
         id="stop1260" /><stop
         style="stop-color:#c28657;stop-opacity:1;"
         offset="0.31939664"
         id="stop4900" /><stop
         style="stop-color:#d6ae8f;stop-opacity:1;"
         offset="0.55940014"
         id="stop5628" /><stop
         style="stop-color:#ddbca0;stop-opacity:1;"
         offset="0.68340248"
         id="stop4898" /><stop
         style="stop-color:#ffffff;stop-opacity:1;"
         offset="1"
         id="stop1262" /></linearGradient><linearGradient
       inkscape:collect="always"
       xlink:href="#linearGradient1264"
       id="linearGradient1266"
       x1="88.001892"
       y1="124.83308"
       x2="120.14964"
       y2="76.455132"
       gradientUnits="userSpaceOnUse"
       gradientTransform="matrix(0.24804827,0,0,0.26466477,-3.3371504,5.600645)" /><linearGradient
       inkscape:collect="always"
       xlink:href="#linearGradient5636"
       id="linearGradient5638"
       x1="85.862206"
       y1="85.61219"
       x2="86.601883"
       y2="47.600941"
       gradientUnits="userSpaceOnUse"
       gradientTransform="matrix(0.24243231,0,0,0.26474064,-2.8587155,6.3322485)" /><linearGradient
       inkscape:collect="always"
       xlink:href="#linearGradient5648"
       id="linearGradient5650"
       x1="69.98716"
       y1="50.926346"
       x2="99.335678"
       y2="51.358293"
       gradientUnits="userSpaceOnUse"
       gradientTransform="matrix(0.2621757,0,0,0.26471662,-4.4931062,6.8308897)" /><linearGradient
       inkscape:collect="always"
       xlink:href="#linearGradient5716"
       id="linearGradient5718"
       x1="133.55231"
       y1="49.822273"
       x2="83.797523"
       y2="31.964005"
       gradientUnits="userSpaceOnUse"
       gradientTransform="matrix(0.26458333,0,0,0.26458333,-4.6800836,7.3430793)" /><linearGradient
       inkscape:collect="always"
       xlink:href="#linearGradient8075"
       id="linearGradient8077"
       x1="84.899078"
       y1="20.242262"
       x2="86.677452"
       y2="41.622498"
       gradientUnits="userSpaceOnUse"
       gradientTransform="matrix(0.28026527,0,0,0.4666734,-6.109843,2.2446436)" /></defs><g
     inkscape:label="Layer 1"
     inkscape:groupmode="layer"
     id="layer1"><path
       style="fill:url(#linearGradient1266);stroke:#b8733b;stroke-width:0.104575;stroke-linecap:round;stroke-dasharray:none;stroke-opacity:1"
       d="m 14.82367,38.31847 c -0.958778,-0.06766 -2.008513,-0.202384 -2.629697,-0.337453 -0.534612,-0.116245 -0.959509,-0.264056 -0.959722,-0.333861 -6.2e-5,-0.02016 -0.409817,-2.362448 -0.91057,-5.205081 -0.5007496,-2.84263 -0.9005346,-5.179003 -0.8884086,-5.19194 0.01212,-0.01293 0.07096,0.0044 0.130743,0.03853 0.197822,0.112964 1.4150056,0.397269 2.2040636,0.514819 3.699793,0.551173 9.251363,0.501048 12.490116,-0.112776 0.517744,-0.09814 1.335649,-0.315282 1.608951,-0.427183 0.05977,-0.02446 -0.134018,1.176561 -0.8138,5.043914 -0.490734,2.791816 -0.908114,5.143512 -0.927515,5.225988 -0.02522,0.107278 -0.09882,0.177091 -0.258526,0.245271 -0.521324,0.222567 -1.862775,0.431177 -3.500047,0.544292 -0.986721,0.06815 -4.556943,0.06523 -5.545588,-0.0045 z"
       id="path1258" /><path
       style="fill:url(#linearGradient5638);stroke:#b8733b;stroke-width:0.103399;stroke-linecap:round;stroke-dasharray:none;stroke-opacity:1"
       d="m 15.571592,28.337397 c -0.846682,-0.04092 -2.542012,-0.189653 -3.193888,-0.280153 -1.660878,-0.230579 -3.0593666,-0.66607 -2.8921186,-0.900609 0.02712,-0.03804 1.0333486,-1.522921 2.2360206,-3.29969 1.202671,-1.77677 2.190927,-3.23598 2.196121,-3.242687 0.0057,-0.0067 0.126157,0.0266 0.2688,0.07402 0.795419,0.264543 2.938156,0.411295 4.604023,0.315325 1.157013,-0.06662 2.033282,-0.185099 2.392043,-0.323325 0.120861,-0.04654 0.236905,-0.06483 0.257877,-0.04065 0.02094,0.02418 1.030005,1.507743 2.2423,3.296775 1.633661,2.41086 2.190109,3.271292 2.149837,3.324286 -0.139126,0.183056 -0.952386,0.461612 -1.824612,0.624963 -1.643775,0.307842 -3.23675,0.431716 -5.84464,0.4545 -1.18069,0.01031 -2.346985,0.0091 -2.591763,-0.0028 z"
       id="path5630" /><path
       style="fill:url(#linearGradient5650);stroke:#b8733b;stroke-width:0.107535;stroke-linecap:round;stroke-dasharray:none;stroke-opacity:1"
       d="m 15.834506,20.91965 c -0.709281,-0.05822 -1.542063,-0.18908 -1.77685,-0.279211 -0.135865,-0.05215 -0.148328,-0.08408 -0.148328,-0.379946 v -0.323005 l 0.181695,0.03669 c 0.921327,0.186051 1.616902,0.23071 3.583727,0.23009 2.002599,-6.34e-4 3.032747,-0.07082 3.638019,-0.247852 l 0.184025,-0.05383 v 0.361921 0.361923 l -0.268959,0.06448 c -0.944316,0.226379 -3.896605,0.35159 -5.393329,0.228739 z"
       id="path5642" /><path
       style="fill:url(#linearGradient5718);fill-opacity:1;stroke:#b8733b;stroke-width:0.152716;stroke-linecap:round;stroke-dasharray:none;stroke-opacity:1"
       d="m 21.774079,18.335592 c -0.237386,1.323907 -0.234349,1.311815 -0.297687,1.432171 -0.133453,0.253593 -1.209639,0.343644 -3.852308,0.343644 -2.472312,0 -3.554326,-0.09082 -3.696871,-0.310299 -0.03349,-0.05157 -0.263824,-1.12262 -0.511847,-2.380114 l -0.45095,-2.286352 0.208514,0.04463 c 1.581362,0.338449 7.195064,0.366863 8.895827,0.04503 0.200009,-0.03785 0.368715,-0.06288 0.374904,-0.05562 0.0062,0.0073 -0.0071,0.212757 -0.08229,0.462057 -0.123026,0.407975 -0.316748,0.914124 -0.266803,1.001031 -0.168304,-0.05656 0.06662,-0.169715 -0.0016,-0.120808 -0.08299,0.0594 0.0067,0.0073 0.0034,0.143188 0.04815,0.07695 0.0029,0.06903 3.81921,1.816042 2.76588,1.266136 2.766573,1.28099 4.334052,1.942606 0.330277,0.139406 0.306358,0.137015 0.273452,0.357224 -0.0827,0.580337 -0.04671,0.338551 -0.09011,0.745117 -1.164506,-0.527289 -4.730401,-2.180861 -6.847692,-3.148894 -1.156404,-0.528713 -1.155901,-0.523281 -1.511983,-0.672253 -0.169547,-0.07093 -0.151251,-0.07341 -0.299191,0.641609 z"
       id="path5710"
       sodipodi:nodetypes="csssscsssscscssccssc" /><path
       style="fill:url(#linearGradient8077);stroke:#b8733b;stroke-width:0.02187;stroke-linecap:round;stroke-dasharray:none;stroke-opacity:1"
       d="m 15.419053,15.528975 c -1.246715,-0.100929 -2.682549,-0.383535 -2.554564,-0.502798 0.09537,-0.08888 1.325762,-0.329563 2.105154,-0.411802 1.234253,-0.130235 3.048182,-0.165622 4.280098,-0.0835 1.598445,0.106558 3.099615,0.342022 3.201338,0.50214 0.08004,0.12598 -1.37659,0.393943 -2.730528,0.502312 -1.022832,0.08187 -3.252455,0.07857 -4.301498,-0.0064 z"
       id="path8069" /><path
       d="m 13.645637,1.7021932 c -0.0046,0.0085 -0.0095,0.15395 -0.0095,0.322327 0,0.254972 -0.0046,0.322321 -0.02281,0.396889 -0.0253,0.104641 -0.06497,0.204462 -0.08179,0.204462 -0.02044,0 -0.153949,-0.135906 -0.212878,-0.21649 -0.03126,-0.04329 -0.09377,-0.1359 -0.139511,-0.208066 -0.05893,-0.0926 -0.08903,-0.128687 -0.105883,-0.128687 -0.0216,0 -0.02281,0.006 -0.01685,0.06253 0.003,0.0349 0.02281,0.134705 0.04326,0.222501 0.02046,0.08779 0.04329,0.200847 0.04932,0.252565 0.04447,0.341569 -0.126286,0.423354 -0.210472,0.101024 -0.0277,-0.107038 -0.05407,-0.169578 -0.07217,-0.169578 -0.02163,0 -0.03004,0.02764 -0.03004,0.09982 0,0.0349 -0.0085,0.114258 -0.01802,0.176801 -0.02408,0.147928 -0.06857,0.315103 -0.127493,0.479877 l -0.01441,0.0409 -0.0253,-0.05292 c -0.01441,-0.0289 -0.03004,-0.05172 -0.0373,-0.05054 -0.0059,0.0011 -0.02043,0.02764 -0.03126,0.06014 -0.0112,0.03127 -0.03728,0.09742 -0.05777,0.146733 -0.03966,0.08779 -0.03966,0.08779 -0.03126,0.234524 0.0095,0.199647 0.03367,0.305489 0.08539,0.380057 l 0.04092,0.06013 -0.05407,0.01319 c -0.135908,0.03365 -0.270613,0.27422 -0.270613,0.483487 0,0.05411 0.03248,0.116671 0.06018,0.116671 0.0112,0 0.05173,-0.02764 0.09021,-0.06134 0.16128,-0.137107 0.351305,-0.214082 0.57621,-0.23453 l 0.095,-0.0084 -0.0074,0.03846 c -0.0072,0.0361 -0.03971,0.123888 -0.188822,0.512352 -0.07094,0.185214 -0.108246,0.339161 -0.116622,0.4870949 -0.0085,0.153946 0.0046,0.208066 0.06737,0.277822 0.04329,0.04811 0.04932,0.05172 0.109444,0.05292 0.06375,0 0.06375,0 0.120275,0.07216 0.0421,0.05292 0.06615,0.07336 0.09746,0.08058 0.10343,0.02403 0.208065,-0.0361 0.311497,-0.175594 0.0361,-0.04929 0.06738,-0.08779 0.06972,-0.0854 0.0074,0.0072 -0.05656,0.128693 -0.101033,0.187623 -0.02281,0.03128 -0.09861,0.121479 -0.16837,0.199652 -0.128771,0.144316 -0.209357,0.250159 -0.209357,0.276617 0,0.0072 0.0112,0.02283 0.0253,0.03246 0.02408,0.01683 0.0253,0.01926 0.0059,0.07577 -0.06973,0.215284 -0.08061,0.54603 -0.0253,0.792584 0.0112,0.04573 0.0349,0.156348 0.05407,0.245351 0.01926,0.089 0.04209,0.181607 0.05174,0.204457 0.0095,0.02283 0.02045,0.06615 0.0253,0.09622 0.01214,0.08178 0.14432,0.348781 0.173186,0.348781 0.01214,0 0.05656,0.02647 0.09746,0.06014 0.04092,0.03246 0.08184,0.06014 0.0914,0.06014 0.02164,0 0.07699,0.06615 0.156356,0.1852161 0.07339,0.111851 0.151534,0.187622 0.193634,0.187622 0.01441,0 0.06374,0.02527 0.108235,0.0553 0.06855,0.04448 0.111852,0.09021 0.242951,0.254973 0.208064,0.26219 0.436576,0.576093 0.730039,1.00666 0.655471,0.9585567 0.662687,0.9681777 0.719216,0.9681777 0.01685,0 0.03248,-0.0059 0.03485,-0.01319 0.0074,-0.02284 0.06737,0.01565 0.200854,0.131094 0.08657,0.07577 0.165971,0.131089 0.258581,0.180405 0.152743,0.08178 0.173184,0.08899 0.354797,0.12749 0.131093,0.02764 0.1347,0.03008 0.246555,0.114261 0.122695,0.09261 0.199644,0.17078 0.199644,0.200848 0,0.03728 0.04211,0.09743 0.139516,0.19845 0.095,0.09982 0.149136,0.180405 0.149136,0.221296 0,0.03727 0.09623,0.265793 0.133496,0.31631 0.02044,0.02764 0.06014,0.06374 0.08779,0.08057 l 0.0517,0.03008 0.01926,0.158756 c 0.03126,0.248961 0.0433,0.410125 0.05656,0.770933 0.0132,0.317511 0.01214,0.336752 -0.0084,0.35239 -0.06497,0.04929 -0.217692,0.05411 -0.347585,0.01086 -0.095,-0.03246 -0.239331,-0.0409 -0.29826,-0.01799 -0.07814,0.02893 -0.09863,0.09382 -0.05534,0.165977 0.02044,0.03364 0.02766,0.03847 0.04212,0.02643 0.0095,-0.0081 0.01802,-0.02168 0.01802,-0.03009 0,-0.0081 0.0085,-0.02168 0.01802,-0.03009 0.01441,-0.01207 0.04092,0.0024 0.150339,0.07938 0.125068,0.08899 0.131096,0.09502 0.111853,0.114259 -0.04329,0.03966 -0.12749,0.06018 -0.286242,0.07097 -0.162362,0.01086 -0.2237,0.02527 -0.301875,0.07578 -0.119055,0.07452 -0.293459,0.303083 -0.293459,0.383662 0,0.03127 0.06613,0.178002 0.08059,0.178002 0.03005,-0.0011 0.03966,-0.02048 0.02645,-0.05655 -0.01926,-0.05655 0.01214,-0.108246 0.08299,-0.137105 0.03126,-0.01325 0.07217,-0.03127 0.09019,-0.04091 0.01926,-0.0092 0.06012,-0.01797 0.09139,-0.01797 0.03248,0 0.116635,-0.0133 0.188828,-0.02888 0.07217,-0.01563 0.162361,-0.03247 0.200852,-0.03732 l 0.07094,-0.0081 -0.002,0.06495 c -0.0046,0.140715 0.003,0.146728 0.095,0.06375 0.03728,-0.03127 0.07699,-0.05535 0.09983,-0.05891 0.216484,-0.03364 0.269402,-0.0445 0.325931,-0.07095 0.08299,-0.03733 0.156353,-0.10343 0.187619,-0.168374 0.01441,-0.02893 0.02767,-0.09016 0.03248,-0.146731 0.0095,-0.119069 0.02888,-0.158756 0.08059,-0.171988 0.03248,-0.0081 0.0397,-0.0071 0.04932,0.01445 0.02044,0.05051 0.02163,0.240543 0.002,0.378858 -0.02404,0.174383 -0.04329,0.202052 -0.180404,0.265794 -0.19243,0.09016 -0.19243,0.09016 -0.457028,0.08659 -0.259779,-0.0022 -0.346377,0.0092 -0.420947,0.06012 -0.05776,0.03971 -0.06739,0.05775 -0.06739,0.122682 0,0.125079 0.02764,0.147936 0.07814,0.06736 0.01685,-0.02643 0.0337,-0.04811 0.0373,-0.04811 0.003,0 0.01803,0.01324 0.03126,0.03006 0.05529,0.07095 0.09622,0.07574 0.304283,0.03732 0.144327,-0.02643 0.137109,-0.0063 -0.01322,0.04091 -0.185214,0.05655 -0.313908,0.121474 -0.405309,0.204463 -0.137112,0.123876 -0.167181,0.208065 -0.121494,0.341568 0.02046,0.05892 0.05407,0.07339 0.06252,0.0253 0.0059,-0.03004 0.06973,-0.0986 0.114294,-0.122674 0.01926,-0.0094 0.04932,-0.01563 0.06855,-0.01323 0.0253,0.0021 0.04092,-0.0047 0.05893,-0.02891 0.02891,-0.03609 0.06615,-0.05052 0.191235,-0.06972 0.06497,-0.01109 0.09861,-0.02282 0.126281,-0.0469 0.02163,-0.01801 0.06615,-0.03845 0.09863,-0.0469 0.03369,-0.0083 0.105883,-0.03971 0.162365,-0.06979 0.139515,-0.07339 0.264592,-0.133499 0.297063,-0.143123 0.03004,-0.0083 0.03126,-0.01109 -0.111853,0.256181 -0.05292,0.0986 -0.05292,0.147926 0.0011,0.298268 0.04092,0.115454 0.09378,0.199643 0.128694,0.206864 0.01441,0.002 0.01802,-0.0112 0.01926,-0.06375 0,-0.07457 0.04812,-0.182809 0.212883,-0.487096 0.105838,-0.194833 0.138306,-0.293456 0.138306,-0.417334 0,-0.08657 0.002,-0.09264 0.03966,-0.129888 0.04212,-0.04208 0.138312,-0.07816 0.209271,-0.07816 0.03005,0 0.05293,0.01206 0.09376,0.0493 0.07094,0.06496 0.09144,0.05771 0.0758,-0.02762 -0.01685,-0.09016 -0.06613,-0.133502 -0.185213,-0.161162 -0.07699,-0.01797 -0.09377,-0.02642 -0.113079,-0.05889 -0.04092,-0.0661 -0.06012,-0.182813 -0.06853,-0.402908 -0.0059,-0.191234 0.0095,-0.853913 0.02765,-1.163011 l 0.0074,-0.123874 0.07814,-0.10464 c 0.04331,-0.05893 0.104651,-0.133497 0.137107,-0.165975 0.03972,-0.0409 0.05893,-0.07096 0.05893,-0.0926 0,-0.01801 0.02162,-0.05893 0.05529,-0.101022 0.04572,-0.06013 0.05292,-0.07697 0.04689,-0.108246 -0.0085,-0.05054 0.0046,-0.08178 0.07698,-0.171986 0.04932,-0.06013 0.06135,-0.0854 0.06135,-0.12027 0,-0.07457 0.05656,-0.147928 0.146729,-0.192433 0.06855,-0.03365 0.09863,-0.03972 0.298267,-0.06013 0.250163,-0.02647 0.33796,-0.04929 0.497924,-0.129895 0.174389,-0.0866 0.305479,-0.179202 0.43417,-0.304281 0.06616,-0.06375 0.205664,-0.180404 0.311501,-0.258582 0.104662,-0.07696 0.212878,-0.161164 0.24054,-0.185215 0.0373,-0.03366 0.06971,-0.05054 0.132296,-0.06495 0.101045,-0.02527 0.170786,-0.06374 0.251364,-0.141916 0.0337,-0.03246 0.06252,-0.05654 0.06497,-0.05411 0.0095,0.0085 0.003,0.257381 -0.0073,0.343977 -0.02764,0.211675 -0.02884,0.252565 -0.0074,0.252565 0.02884,0 0.06855,-0.09981 0.140713,-0.356 l 0.06374,-0.227313 0.0059,0.107037 c 0.0059,0.101022 0.0074,0.10464 0.0265,0.08299 0.02408,-0.02646 0.105883,-0.270611 0.105883,-0.315109 0,-0.05048 0.0216,-0.110639 0.04932,-0.140716 0.02165,-0.02408 0.0337,-0.02647 0.07814,-0.02045 0.05054,0.006 0.05407,0.0045 0.128688,-0.06735 l 0.07699,-0.07337 0.01326,0.04448 c 0.0074,0.02527 0.0216,0.125079 0.03248,0.222503 0.02046,0.187622 0.03972,0.268202 0.06734,0.268202 0.02164,0 0.03248,-0.05772 0.04092,-0.228514 0.003,-0.07938 0.0095,-0.179204 0.01322,-0.222501 0.0074,-0.07457 0.0085,-0.07577 0.02408,-0.04573 0.04932,0.09502 0.101045,0.358407 0.101045,0.519565 0,0.08779 -0.129889,0.681937 -0.188828,0.865945 -0.02281,0.07097 -0.06014,0.173192 -0.08298,0.226111 -0.07699,0.179204 -0.04209,0.163566 0.121491,-0.05772 0.05529,-0.07458 0.105861,-0.138315 0.113078,-0.143126 0.0085,-0.0035 0.06251,-0.104641 0.121481,-0.222496 0.264595,-0.529191 0.34157,-0.784164 0.342767,-1.136554 0,-0.192433 0,-0.192433 0.02645,-0.192433 0.03844,0 0.04574,0.04448 0.04574,0.288649 -0.0011,0.222496 -0.02164,0.358401 -0.08903,0.586916 -0.01926,0.06375 -0.03004,0.120269 -0.02408,0.123874 0.02645,0.01565 0.153947,-0.222496 0.294663,-0.552035 l 0.07094,-0.167176 0.003,0.11305 c 0.003,0.09381 -0.01803,0.322322 -0.04092,0.428159 -0.0112,0.05531 0.02766,0.02408 0.07699,-0.06134 0.06013,-0.105827 0.15996,-0.316309 0.190031,-0.402905 0.01215,-0.03366 0.02647,-0.06253 0.03004,-0.06253 0.0112,0 0.02281,0.111865 0.02281,0.216485 0,0.07337 -0.0074,0.109456 -0.0373,0.186422 -0.08299,0.212876 -0.287446,0.851514 -0.287446,0.898416 0,0.0121 0.0046,0.02165 0.01215,0.02165 0.0112,0 0.211678,-0.252564 0.294665,-0.372839 0.04448,-0.06494 0.09862,-0.120269 0.117839,-0.120269 0.0046,0 0.0059,0.01926 0.0011,0.04209 -0.003,0.02408 -0.002,0.04209 0.003,0.04209 0.01926,0 0.123881,-0.109455 0.17078,-0.179203 0.0253,-0.03728 0.07579,-0.120271 0.113077,-0.184014 0.0373,-0.06374 0.095,-0.151538 0.128688,-0.194836 0.03248,-0.04209 0.08179,-0.123874 0.109411,-0.180404 0.05293,-0.108235 0.08903,-0.156356 0.108235,-0.145527 0.01684,0.0108 0.01321,0.104646 -0.0074,0.162365 -0.02645,0.07458 -0.02408,0.09622 0.0112,0.09622 h 0.02873 l -0.01684,0.0878 c -0.03004,0.156348 -0.09144,0.33916 -0.178004,0.530386 -0.04932,0.108246 -0.04811,0.10343 -0.02645,0.10343 0.04329,0 0.372834,-0.595334 0.451009,-0.814227 0.07699,-0.21288 0.06736,-0.199652 0.09142,-0.123888 0.01214,0.03728 0.02281,0.123888 0.02651,0.198452 0.0059,0.120269 0.002,0.153945 -0.04329,0.381251 -0.07937,0.394488 -0.161166,0.6675 -0.262189,0.868352 -0.0433,0.0854 -0.0433,0.119069 -0.0011,0.06736 0.215284,-0.264593 0.473857,-0.728832 0.568872,-1.022292 0.02408,-0.07578 0.04689,-0.146734 0.05053,-0.156353 0.0095,-0.03008 0.0253,0.02527 0.0373,0.138313 0.0074,0.05654 0.01441,0.105827 0.01685,0.109456 0.003,0.0023 0.01441,0.0023 0.02408,-0.0011 0.01215,-0.0045 0.0349,-0.107037 0.07937,-0.37043 0.0734,-0.423356 0.09143,-0.6085697 0.0758,-0.7961867 -0.0095,-0.126285 -0.01322,-0.138314 -0.07814,-0.26941 -0.09377,-0.191227 -0.09019,-0.259783 0.02043,-0.327133 l 0.03611,-0.02165 0.04092,0.05654 c 0.123867,0.173187 0.222504,0.455821 0.270609,0.7781467 0.03248,0.217687 0.01326,0.853917 -0.0337,1.084838 -0.0112,0.05292 0.01563,0.06494 0.04811,0.02165 0.01441,-0.01926 0.05293,-0.0854 0.08539,-0.149134 0.05292,-0.102232 0.06497,-0.115462 0.09863,-0.122681 0.0734,-0.01445 0.09981,-0.04329 0.165972,-0.182813 0.06616,-0.137107 0.0818,-0.177998 0.125082,-0.327132 0.04572,-0.159963 0.06375,-0.287451 0.06973,-0.5015267 0.0074,-0.24415 -0.0059,-0.380056 -0.05656,-0.592932 -0.05534,-0.22255 -0.122704,-0.384915 -0.240547,-0.571331 -0.05407,-0.0854 -0.05777,-0.09502 -0.06497,-0.199651 -0.0074,-0.1058311 -0.0074,-0.1106401 0.0253,-0.1515381 0.01926,-0.02408 0.03966,-0.05172 0.04573,-0.06255 0.0112,-0.01564 0.01926,-0.01683 0.06251,-0.0045 0.05893,0.01683 0.07577,0.0072 0.0481,-0.02408 -0.0289,-0.03246 -0.0253,-0.04929 0.01322,-0.05772 0.06736,-0.01445 0.110621,-0.03128 0.110621,-0.04209 0,-0.006 0.01801,-0.0108 0.04092,-0.0108 0.06134,0 0.07217,-0.02165 0.06134,-0.125079 -0.0074,-0.08419 -0.0059,-0.0938 0.02645,-0.147928 0.03126,-0.05292 0.0337,-0.06736 0.03248,-0.178002 -5.82e-4,-0.166089 -0.02708,-0.234639 -0.118509,-0.300788 -0.190913,-0.139539 -0.445889,-0.223727 -0.781442,-0.259814 -0.07217,-0.0072 -0.147931,-0.01926 -0.167172,-0.02647 -0.03126,-0.01209 -0.03248,-0.0132 -0.0112,-0.02165 0.0421,-0.01564 0.558052,-0.03729 0.701176,-0.02884 0.307891,0.01683 0.547222,0.06134 0.742068,0.139516 0.123879,0.04929 0.174385,0.07577 0.287439,0.150336 l 0.09863,0.06494 0.07577,0.146726 c 0.0818,0.157555 0.095,0.190026 0.129887,0.340368 0.06135,0.258576 0.06497,0.6326211 0.0085,0.9032251 -0.06737,0.318719 -0.191225,0.596542 -0.377648,0.844296 -0.04212,0.05654 -0.06135,0.09261 -0.05407,0.09982 0.02889,0.02889 0.297073,-0.10704 0.390884,-0.198446 0.05529,-0.05411 0.08299,-0.09982 0.181602,-0.297069 0.199692,-0.401699 0.242986,-0.564065 0.241779,-0.9128511 -8.15e-4,-0.192447 -0.0041,-0.242964 -0.03212,-0.374059 -0.04438,-0.210472 -0.09248,-0.34878 -0.188729,-0.546024 -0.08658,-0.179204 -0.175596,-0.317511 -0.291052,-0.460636 -0.03971,-0.04691 -0.06855,-0.0866 -0.06613,-0.0866 0.003,0 0.0373,0.0132 0.07457,0.03128 0.03844,0.01683 0.116621,0.04091 0.173187,0.0553 0.134704,0.03128 0.323526,0.02647 0.419743,-0.0132 0.0349,-0.0132 0.08779,-0.02528 0.11661,-0.02528 0.09746,0 0.0806,-0.01801 -0.108224,-0.11786 -0.02647,-0.01445 -0.09984,-0.04811 -0.162366,-0.07457 -0.151568,-0.06384 -0.286273,-0.151636 -0.396924,-0.258675 l -0.09021,-0.0866 -0.204464,-0.06134 c -0.210457,-0.06274 -0.280212,-0.07718 -0.472642,-0.09763 -0.147933,-0.01563 -0.438986,-0.09863 -0.573691,-0.163566 -0.198442,-0.09622 -0.363216,-0.127489 -0.667499,-0.127489 -0.153943,0 -0.21889,-0.0045 -0.288647,-0.02283 -0.303081,-0.07577 -0.685542,-0.06374 -1.046354,0.03128 -0.205661,0.05411 -0.626599,0.198444 -0.793775,0.273012 -0.181612,0.08058 -0.419746,0.280224 -0.591731,0.494307 -0.108235,0.134704 -0.264593,0.368028 -0.352391,0.524382 -0.04572,0.08178 -0.07217,0.114261 -0.131097,0.158756 -0.151543,0.1154601 -0.273012,0.1491341 -0.398092,0.1082401 -0.05893,-0.01801 -0.07579,-0.02884 -0.08903,-0.06014 -0.01684,-0.03729 -0.01926,-0.03846 -0.09623,-0.03846 -0.0481,0 -0.12508,0.01209 -0.193634,0.03128 -0.135905,0.0361 -0.205662,0.03366 -0.360807,-0.01326 -0.218895,-0.06615 -0.340369,-0.08058 -0.429369,-0.04929 -0.07937,0.02764 -0.167174,0.0035 -0.383657,-0.104645 -0.167179,-0.08419 -0.247762,-0.108241 -0.347581,-0.102232 -0.06497,0.0023 -0.0806,0 -0.104662,-0.02283 -0.03844,-0.0361 -0.116635,-0.06856 -0.236933,-0.09982 -0.113078,-0.0289 -0.176796,-0.05772 -0.210471,-0.09502 -0.01441,-0.01564 -0.0373,-0.02527 -0.06251,-0.02527 -0.06856,0 -0.191231,-0.0553 -0.346379,-0.155147 -0.095,-0.06257 -0.169563,-0.101057 -0.206845,-0.109485 -0.127313,-0.02882 -0.255996,-0.108227 -0.467676,-0.288633 -0.05893,-0.05054 -0.138299,-0.114256 -0.176788,-0.141915 -0.05172,-0.03966 -0.083,-0.07818 -0.137108,-0.168376 -0.151552,-0.255001 -0.382467,-0.5833401 -0.556859,-0.7902051 -0.08419,-0.09982 -0.239339,-0.257379 -0.4426,-0.451014 -0.04572,-0.04329 -0.121461,-0.132297 -0.168371,-0.198446 -0.158757,-0.223702 -0.436583,-0.503927 -0.701179,-0.710791 -0.14312,-0.11186 -0.310294,-0.217692 -0.489497,-0.309098 -0.221293,-0.111847 -0.28985,-0.135906 -0.445,-0.153946 -0.06854,-0.0072 -0.123879,-0.01564 -0.123879,-0.01926 0,-0.0023 0.03606,-0.02164 0.08184,-0.04329 0.07698,-0.03609 0.08779,-0.03847 0.224902,-0.03847 0.108235,0 0.170785,0.0072 0.252572,0.02646 0.101044,0.02527 0.485889,0.06494 0.621794,0.06375 0.07094,0 0.229718,-0.02284 0.250161,-0.03609 0.0253,-0.01564 -0.003,-0.04329 -0.08179,-0.08178 -0.03612,-0.01802 -0.06497,-0.03847 -0.06375,-0.04448 0.0011,-0.0072 0.02408,-0.02045 0.05292,-0.03008 0.08059,-0.0289 0.08539,-0.03366 0.06134,-0.06975 -0.01214,-0.01801 -0.03126,-0.03966 -0.04329,-0.04811 -0.04092,-0.03008 -0.02281,-0.07697 0.04092,-0.110654 0.03248,-0.01682 0.05777,-0.0361 0.05777,-0.04329 0,-0.02164 -0.04092,-0.05172 -0.09979,-0.07216 -0.03126,-0.01077 -0.05892,-0.02408 -0.06375,-0.03008 -0.0095,-0.01682 0.09746,-0.07938 0.205661,-0.119066 0.162369,-0.06134 0.222503,-0.09382 0.222503,-0.119066 0,-0.03366 -0.07937,-0.04329 -0.245352,-0.03008 -0.0734,0.0045 -0.220092,0.01077 -0.325932,0.01077 -0.16477,0.0011 -0.202054,0.006 -0.262189,0.02764 -0.0373,0.01321 -0.101044,0.0289 -0.139514,0.03366 -0.06497,0.0072 -0.07217,0.006 -0.0854,-0.01926 -0.02768,-0.05054 -0.0074,-0.108243 0.06252,-0.181611 0.0349,-0.03729 0.105872,-0.135906 0.156354,-0.217686 0.05173,-0.08298 0.120275,-0.179204 0.153946,-0.215284 0.07814,-0.08419 0.102198,-0.164772 0.05407,-0.184014 -0.01926,-0.0072 -0.180401,0.06856 -0.279024,0.132297 -0.03844,0.02408 -0.16958,0.11786 -0.292257,0.209272 -0.122699,0.0902 -0.274217,0.196036 -0.336762,0.233323 l -0.114293,0.06855 -0.02047,-0.04572 c -0.03605,-0.08179 -0.04932,-0.227312 -0.0349,-0.38727 0.0074,-0.07818 0.01322,-0.185214 0.01322,-0.234524 v -0.09141 h -0.04092 c -0.02163,0 -0.04571,0.0072 -0.05292,0.01564 -0.0074,0.0085 -0.04572,0.07938 -0.08539,0.156354 -0.08181,0.162365 -0.197245,0.339161 -0.298273,0.458228 -0.095,0.113052 -0.104662,0.11786 -0.141921,0.07337 -0.07814,-0.09622 -0.138308,-0.267001 -0.180403,-0.511152 -0.0112,-0.06253 -0.0253,-0.128687 -0.03248,-0.146726 -0.02049,-0.05411 -0.09262,-0.089 -0.114294,-0.05535 z m 4.456011,11.3992018 c 0.01441,0.221302 0.03004,0.485895 0.0349,0.588123 0.0074,0.173189 0.0059,0.184014 -0.01441,0.180405 -0.01214,-0.0024 -0.03248,-0.01924 -0.04689,-0.03847 -0.02047,-0.02766 -0.0253,-0.05772 -0.03248,-0.210474 -0.0265,-0.527984 -0.03491,-0.796185 -0.02765,-0.898414 l 0.0085,-0.11546 0.0253,0.04573 c 0.02408,0.0409 0.02884,0.08779 0.05292,0.448605 z"
       id="path1544"
       style="fill:#000000;stroke:none;stroke-width:0.00120269" /></g></svg>
