<?xml version="1.0" encoding="UTF-8" standalone="no"?>
<!-- Created with Inkscape (http://www.inkscape.org/) -->

<svg
   width="66mm"
   height="9mm"
   viewBox="0 0 66 9"
   version="1.1"
   id="svg16290"
   sodipodi:docname="title.svg"
   inkscape:version="1.2.1 (9c6d41e410, 2022-07-14)"
   xmlns:inkscape="http://www.inkscape.org/namespaces/inkscape"
   xmlns:sodipodi="http://sodipodi.sourceforge.net/DTD/sodipodi-0.dtd"
   xmlns="http://www.w3.org/2000/svg"
   xmlns:svg="http://www.w3.org/2000/svg">
  <sodipodi:namedview
     id="namedview16292"
     pagecolor="#ffffff"
     bordercolor="#000000"
     borderopacity="0.25"
     inkscape:showpageshadow="2"
     inkscape:pageopacity="0.0"
     inkscape:pagecheckerboard="0"
     inkscape:deskcolor="#d1d1d1"
     inkscape:document-units="mm"
     showgrid="false"
     inkscape:zoom="2.3786088"
     inkscape:cx="98.376833"
     inkscape:cy="67.26621"
     inkscape:window-width="1920"
     inkscape:window-height="974"
     inkscape:window-x="-11"
     inkscape:window-y="-11"
     inkscape:window-maximized="1"
     inkscape:current-layer="layer1" />
  <defs
     id="defs16287">
    <rect
       x="10.089932"
       y="117.71587"
       width="770.19812"
       height="179.9371"
       id="rect17229" />
    <rect
       x="9.5128784"
       y="145.0714"
       width="775.29962"
       height="268.73883"
       id="rect16776" />
  </defs>
  <g
     inkscape:label="Layer 1"
     inkscape:groupmode="layer"
     id="layer1">
    <g
       aria-label="Rooster Valley Stills"
       transform="matrix(0.10146045,0,0,0.1661159,-7.1144973,-19.839379)"
       id="text17227"
       style="font-weight:bold;font-size:53.3333px;line-height:1.25;-inkscape-font-specification:'sans-serif, Bold';text-align:center;text-anchor:middle;white-space:pre;shape-inside:url(#rect17229);fill-opacity:0;stroke:#b8733b;stroke-width:1.88976;stroke-linecap:round">
      <path
         d="m 88.248555,134.56735 q 6.171872,-3.56771 13.281245,-3.56771 5.52083,0 9.08853,2.39583 3.59375,2.39583 3.59375,6.09375 0,3.02083 -2.34375,5.36458 -2.34375,2.31771 -6.40624,3.35937 1.79687,4.94792 4.86979,9.63541 3.09895,4.6875 6.19791,7.1875 l -0.39063,0.13021 q -3.8802,1.32812 -7.60416,3.74999 l -0.39062,0.26042 -0.13021,-0.83333 q -1.66667,-10.07812 -4.66146,-17.08333 l -0.10416,-0.26041 q -1.79688,0.83333 -4.817709,1.32812 l -0.208333,0.026 v 9.73958 l 4.583332,4.89583 H 89.342305 l -0.416667,-0.70312 h 12.395822 l -3.776035,-4.01042 v -10.49478 l 0.546874,-0.0781 q 2.968751,-0.3125 4.973951,-1.17187 -0.15625,-0.3125 -0.18229,-0.39063 l -0.26041,-0.7552 q -0.026,-0.0781 -0.13021,-0.3125 -1.61458,0.46875 -6.093748,1.01562 l -0.286458,0.0521 v 11.61458 l 2.968748,3.09896 h -11.51041 l 3.385415,-3.09896 v -8.74999 l -0.208333,0.026 q -1.510416,0.33854 -2.734374,0.7552 l -0.208333,0.0781 -0.234375,-0.52083 q 1.145833,-0.44271 1.796874,-0.59896 l 1.380208,-0.33854 0.208333,-0.0521 v -1.35416 q -1.536457,0 -3.828123,0.67708 l -0.286458,0.10417 q 0.05208,-0.36459 0.520833,-1.69271 0.05208,-0.10417 0.364583,-1.17187 0.02604,-0.0781 0.07813,-0.23438 1.171875,0.0781 1.822916,0.0781 0.703124,0 1.302082,-0.0781 v -12.81249 q -1.197916,-0.72917 -2.473956,-1.22396 z m 7.864579,-0.67709 v 14.03645 q 0.755208,0 1.432291,-0.1302 v -12.8125 q 1.432291,-0.39062 3.437495,-0.39062 5.07812,0 6.90104,3.33333 -1.92708,-1.5625 -3.38541,-2.13542 -1.45834,-0.59895 -3.48959,-0.59895 -1.588536,0 -2.786452,0.3125 v 12.29166 l 0.286458,-0.0521 q 5.130204,-0.9375 7.604164,-2.9427 2.5,-2.03125 2.5,-5.26042 0,-2.89062 -2.23959,-4.76562 -2.23958,-1.90104 -5.65103,-1.90104 -2.734377,0 -4.609376,1.01562 z m 12.578116,15.62499 q 1.64063,5.36458 5.80729,10.49479 2.60416,3.20312 6.58854,5.7552 -5.96354,1.58855 -11.19791,4.84375 l -0.23438,0.15625 -0.52083,-0.41667 q 4.97395,-3.2552 10.59895,-4.79166 -7.49999,-5 -11.79687,-15.98957 l -0.15625,-0.44271 q 7.96875,-3.02083 7.96875,-9.21875 0,-2.55208 -2.05729,-5.57291 2.63021,2.39583 2.63021,6.09375 0,5.98958 -7.63021,9.08853 z"
         style="font-weight:normal;font-family:Algerian;-inkscape-font-specification:'Algerian, Normal';fill-opacity:1;stroke:none"
         id="path17830" />
      <path
         d="m 141.08707,137.24964 -0.44271,-0.26042 q -2.5,-1.38021 -4.58333,-1.38021 -6.84896,0 -6.84896,13.46354 0,9.84374 4.24479,13.04686 l -0.23437,0.26042 q -2.60417,-1.84896 -3.72396,-4.84375 -1.09375,-3.02083 -1.09375,-8.15103 0,-14.45312 7.60416,-14.45312 3.46354,0 5.07813,2.31771 z m -5.57292,-6.14583 q 6.32812,0 10.10416,4.79166 3.80208,4.79166 3.80208,12.81249 0,7.57812 -3.74999,12.08333 -3.72396,4.5052 -10.02604,4.5052 -4.97396,0 -8.85416,-3.17708 -5.70312,-4.68749 -5.70312,-13.8802 0,-7.86458 3.90624,-12.49999 3.90625,-4.63541 10.52083,-4.63541 z m 0,2.23958 q -8.80208,0 -8.80208,15.46874 0,14.29687 8.67187,14.29687 4.03646,0 6.14583,-3.77604 2.10938,-3.80208 2.10938,-11.09375 0,-8.2552 -2.03125,-11.51041 -2.13542,-3.38541 -6.09375,-3.38541 z m 8.30729,-0.91146 q 3.72395,1.79687 5.88541,6.14583 2.16146,4.34896 2.16146,10.05208 0,8.38541 -4.27083,13.54166 -4.24479,5.15624 -11.17187,5.15624 -4.42708,0 -8.28125,-2.99479 v -0.1302 q 3.22917,2.36979 8.09896,2.36979 6.53645,0 10.72916,-4.92188 4.1927,-4.92187 4.1927,-12.57811 0,-5.70313 -1.92708,-9.97396 -1.90104,-4.27083 -5.41666,-6.3802 z"
         style="font-weight:normal;font-family:Algerian;-inkscape-font-specification:'Algerian, Normal';fill-opacity:1;stroke:none"
         id="path17832" />
      <path
         d="m 174.3683,137.24964 -0.44271,-0.26042 q -2.5,-1.38021 -4.58333,-1.38021 -6.84895,0 -6.84895,13.46354 0,9.84374 4.24479,13.04686 l -0.23438,0.26042 q -2.60416,-1.84896 -3.72395,-4.84375 -1.09375,-3.02083 -1.09375,-8.15103 0,-14.45312 7.60416,-14.45312 3.46354,0 5.07812,2.31771 z m -5.57291,-6.14583 q 6.32812,0 10.10416,4.79166 3.80208,4.79166 3.80208,12.81249 0,7.57812 -3.75,12.08333 -3.72396,4.5052 -10.02603,4.5052 -4.97396,0 -8.85417,-3.17708 -5.70312,-4.68749 -5.70312,-13.8802 0,-7.86458 3.90625,-12.49999 3.90625,-4.63541 10.52083,-4.63541 z m 0,2.23958 q -8.80208,0 -8.80208,15.46874 0,14.29687 8.67187,14.29687 4.03645,0 6.14583,-3.77604 2.10937,-3.80208 2.10937,-11.09375 0,-8.2552 -2.03125,-11.51041 -2.13541,-3.38541 -6.09374,-3.38541 z m 8.30728,-0.91146 q 3.72396,1.79687 5.88542,6.14583 2.16145,4.34896 2.16145,10.05208 0,8.38541 -4.27083,13.54166 -4.24479,5.15624 -11.17187,5.15624 -4.42708,0 -8.28124,-2.99479 v -0.1302 q 3.22916,2.36979 8.09895,2.36979 6.53646,0 10.72916,-4.92188 4.19271,-4.92187 4.19271,-12.57811 0,-5.70313 -1.92708,-9.97396 -1.90104,-4.27083 -5.41667,-6.3802 z"
         style="font-weight:normal;font-family:Algerian;-inkscape-font-specification:'Algerian, Normal';fill-opacity:1;stroke:none"
         id="path17834" />
      <path
         d="m 211.92036,131.72881 q -1.35417,1.82291 -2.16146,3.80208 -1.58854,3.90625 -2.10937,4.79166 l -0.13021,0.15625 q -0.10417,-0.28646 -0.15625,-0.44271 -0.72917,-2.34375 -1.19792,-3.2552 -0.46875,-0.91146 -1.40625,-1.74479 -2.36979,-2.10938 -5.39062,-2.10938 -2.78645,0 -4.63541,1.5625 -1.84896,1.53646 -1.84896,3.88021 0,4.37499 6.58854,5.96354 l 4.40104,1.0677 q 9.40103,2.26563 9.40103,9.92187 0,4.27083 -3.22916,7.1875 -3.20312,2.89062 -7.9427,2.89062 -2.96875,0 -6.64063,-0.91146 l -3.04687,-0.7552 q -1.84896,-0.44271 -3.04687,-0.44271 -1.58854,0 -3.28125,1.01562 l -0.20833,-0.36458 q 3.22916,-4.86979 4.53124,-9.27083 l 0.46875,0.13021 q 0.54688,4.08854 3.28125,6.35416 2.73438,2.26563 7.16146,2.26563 3.48958,0 5.54687,-1.61459 2.05729,-1.61458 2.05729,-4.34895 0,-3.15104 -2.86458,-5.20833 -2.05729,-1.45834 -8.4375,-2.70833 -4.92187,-0.96355 -7.13541,-3.20313 -2.21354,-2.23958 -2.21354,-6.22395 0,-4.11458 2.94271,-6.66666 2.96874,-2.57813 7.70832,-2.57813 3.04688,0 7.10937,1.09375 1.90105,0.52083 2.8125,0.52083 1.27604,0 2.78646,-0.88541 z m 1.61458,1.09375 -0.23437,0.39062 q -1.06771,1.79687 -1.82292,3.4375 -1.82292,3.82812 -2.05729,4.27083 l -0.13021,0.18229 -0.625,-0.26042 0.10417,-0.23437 q 0.75521,-1.71875 2.1875,-4.47916 l 1.77083,-3.4375 0.13021,-0.20834 z m -7.60416,5.18228 q -2.86458,-3.04687 -6.14583,-3.04687 -1.97917,0 -3.28125,1.14583 -1.30208,1.14584 -1.30208,2.91667 0,1.92708 2.6302,3.95833 l 0.20834,0.13021 -0.13021,0.20833 q -3.4375,-1.53646 -3.4375,-4.45312 0,-2.03125 1.45833,-3.30729 1.45834,-1.27604 3.80209,-1.27604 2.23958,0 3.90624,0.96354 1.69271,0.9375 2.47396,2.65625 z m 5.98958,10.33854 q 3.54166,2.68229 3.54166,7.34375 0,4.97395 -3.85416,8.43749 -3.85417,3.4375 -9.375,3.4375 -2.81249,0 -5.07812,-0.57292 l -4.16666,-1.01562 q -1.45833,-0.36459 -3.125,-0.36459 -1.48437,0 -2.73437,0.59896 l -0.3125,-0.75521 q 1.35416,-0.625 2.76041,-0.625 1.5625,0 3.56771,0.46875 l 4.01041,0.96355 q 2.39583,0.57291 5.05208,0.57291 5.20833,0 8.85416,-3.30729 3.67188,-3.33333 3.67188,-8.04687 0,-3.98437 -2.8125,-6.97916 z m -18.54166,7.5 q 0.96354,4.68749 5.15625,6.64062 v 0.20833 q -4.84375,-1.40625 -5.85937,-6.71875 z m -3.2552,-8.4375 0.88541,0.49479 q 0.85938,1.53646 5.02604,2.55208 l 4.19271,1.04167 q 4.27083,1.06771 5.67708,1.84896 1.43229,0.7552 2.03125,2.3177 l -0.1823,0.10417 q -1.17187,-1.35417 -2.55208,-1.97917 -1.35416,-0.62499 -5.23437,-1.53645 -5.625,-1.30209 -7.55208,-2.23958 -1.92708,-0.96355 -2.29166,-2.60417 z"
         style="font-weight:normal;font-family:Algerian;-inkscape-font-specification:'Algerian, Normal';fill-opacity:1;stroke:none"
         id="path17836" />
      <path
         d="m 246.08701,131.44235 q -0.23438,0.44271 -0.3125,0.59896 l -1.77083,3.12499 q -0.91146,1.66667 -1.69271,4.16667 l -0.0521,0.13021 -0.26042,-0.18229 -0.0781,-0.33855 q -0.75521,-2.96874 -2.16146,-4.11458 -1.38021,-1.14583 -4.24479,-1.14583 -1.17188,0 -2.34375,0.10417 h -0.3125 v 28.22915 l 3.07292,2.83854 h -11.90104 l 3.64583,-3.04688 v -25.91144 l -1.84896,-0.026 q -2.68229,0 -3.82812,1.06771 -1.11979,1.04166 -1.32812,3.69791 h -0.67709 q 0.28646,-3.04687 1.5625,-4.24479 1.30209,-1.19791 4.27083,-1.19791 l 1.5625,0.026 h 0.28646 v -1.27604 q -1.32812,-0.15625 -2.52604,-0.15625 -3.35937,0 -4.84375,1.3802 -1.48437,1.35417 -1.64062,4.60938 h -0.3125 q -1.11979,-3.61979 -3.46354,-8.07292 l -0.15625,-0.26041 z m 1.64062,1.64062 q -1.79687,2.29167 -3.77604,7.60416 l -0.10416,0.26042 -0.57292,-0.49479 0.0781,-0.23438 q 1.92708,-5.39062 3.72395,-7.49999 l 0.13021,-0.15625 z m -6.95312,4.0625 q -2.0052,-1.30208 -4.68749,-1.30208 -0.59896,0 -1.25,0.0781 l 0.10416,26.17186 4.14063,4.89583 h -13.30729 l -0.59896,-0.70312 h 12.47395 l -3.48958,-3.98438 v -27.1354 l 1.40625,-0.026 q 2.52604,0 3.56771,0.41667 1.06771,0.39062 1.64062,1.58854 z"
         style="font-weight:normal;font-family:Algerian;-inkscape-font-specification:'Algerian, Normal';fill-opacity:1;stroke:none"
         id="path17838" />
      <path
         d="m 276.13906,131.44235 -0.41666,0.49479 q -2.65625,3.25521 -4.21875,7.47395 -0.26042,-0.59895 -0.39063,-0.88541 -1.43229,-3.125 -3.07291,-4.03646 -1.64063,-0.91146 -5.88541,-0.91146 -1.95313,0 -4.6875,0.13021 v 11.97916 h 1.66666 v -10.59895 q 1.97917,-0.18229 3.77604,-0.18229 3.30729,0 4.86979,0.70312 1.5625,0.70313 2.78646,2.73438 -0.36458,-0.26042 -0.52083,-0.39063 -2.10938,-1.66666 -3.04688,-1.97916 -0.9375,-0.3125 -3.69791,-0.3125 -0.83333,0 -2.96875,0.10416 l -0.54687,0.026 v 9.89583 h 4.79166 l 3.35937,-4.60937 v 11.22395 l -3.35937,-4.34895 h -7.10937 v 14.60936 h 1.66666 v -13.38541 h 5.65104 l 0.67709,0.67709 h -5.67708 v 12.70832 q 5.31249,0 7.55207,-0.75521 2.23959,-0.7552 3.51563,-2.96874 l 1.3802,-2.3698 q 0.0781,-0.15624 0.3125,-0.57291 0.67709,2.86458 1.66667,4.58333 1.01562,1.71875 3.33333,4.01041 h -29.19269 l 3.95833,-3.02083 V 149.8538 q -2.1875,0.26041 -3.95833,1.35416 l -0.36458,-0.54687 q 1.58854,-1.14584 4.32291,-1.48438 v -1.22395 q -0.44271,-0.0521 -0.625,-0.0521 -2.65625,0 -4.84375,1.95313 1.19792,-4.16667 5.46875,-4.16667 v -11.11978 l -3.95833,-3.125 z m 1.25,1.82291 -0.18229,0.23438 q -3.17708,4.27083 -4.24479,7.16145 l -0.44271,-0.54687 q 1.74479,-4.03646 4.50521,-7.39583 z m -7.65624,8.67187 v 11.51041 l -0.65104,-0.33854 v -11.51041 z m 10.78124,22.70832 -1.35417,2.34375 h -28.43748 l -0.41667,-0.70312 h 28.51561 l 0.88542,-1.64063 q -3.75,-3.46354 -5.28646,-7.39583 l 0.83334,0.3125 q 1.43229,3.33334 4.84374,6.66667 z"
         style="font-weight:normal;font-family:Algerian;-inkscape-font-specification:'Algerian, Normal';fill-opacity:1;stroke:none"
         id="path17840" />
      <path
         d="m 282.2849,134.56735 q 6.17187,-3.56771 13.28124,-3.56771 5.52083,0 9.08854,2.39583 3.59375,2.39583 3.59375,6.09375 0,3.02083 -2.34375,5.36458 -2.34375,2.31771 -6.40625,3.35937 1.79688,4.94792 4.86979,9.63541 3.09896,4.6875 6.19791,7.1875 l -0.39062,0.13021 q -3.88021,1.32812 -7.60416,3.74999 l -0.39063,0.26042 -0.1302,-0.83333 q -1.66667,-10.07812 -4.66146,-17.08333 l -0.10417,-0.26041 q -1.79687,0.83333 -4.8177,1.32812 l -0.20834,0.026 v 9.73958 l 4.58333,4.89583 h -13.46353 l -0.41667,-0.70312 h 12.39583 l -3.77604,-4.01042 v -10.49478 l 0.54688,-0.0781 q 2.96874,-0.3125 4.97395,-1.17187 -0.15625,-0.3125 -0.18229,-0.39063 l -0.26042,-0.7552 q -0.026,-0.0781 -0.13021,-0.3125 -1.61458,0.46875 -6.09374,1.01562 l -0.28646,0.0521 v 11.61458 l 2.96875,3.09896 h -11.51041 l 3.38541,-3.09896 v -8.74999 l -0.20833,0.026 q -1.51042,0.33854 -2.73437,0.7552 l -0.20834,0.0781 -0.23437,-0.52083 q 1.14583,-0.44271 1.79687,-0.59896 l 1.38021,-0.33854 0.20833,-0.0521 v -1.35416 q -1.53645,0 -3.82812,0.67708 l -0.28646,0.10417 q 0.0521,-0.36459 0.52084,-1.69271 0.0521,-0.10417 0.36458,-1.17187 0.026,-0.0781 0.0781,-0.23438 1.17188,0.0781 1.82292,0.0781 0.70312,0 1.30208,-0.0781 v -12.81249 q -1.19791,-0.72917 -2.47396,-1.22396 z m 7.86458,-0.67709 v 14.03645 q 0.75521,0 1.43229,-0.1302 v -12.8125 q 1.43229,-0.39062 3.4375,-0.39062 5.07812,0 6.90104,3.33333 -1.92709,-1.5625 -3.38542,-2.13542 -1.45833,-0.59895 -3.48958,-0.59895 -1.58854,0 -2.78646,0.3125 v 12.29166 l 0.28646,-0.0521 q 5.13021,-0.9375 7.60416,-2.9427 2.5,-2.03125 2.5,-5.26042 0,-2.89062 -2.23958,-4.76562 -2.23958,-1.90104 -5.65104,-1.90104 -2.73437,0 -4.60937,1.01562 z m 12.57812,15.62499 q 1.64062,5.36458 5.80729,10.49479 2.60416,3.20312 6.58853,5.7552 -5.96353,1.58855 -11.19791,4.84375 l -0.23437,0.15625 -0.52083,-0.41667 q 4.97395,-3.2552 10.59895,-4.79166 -7.5,-5 -11.79687,-15.98957 l -0.15625,-0.44271 q 7.96875,-3.02083 7.96875,-9.21875 0,-2.55208 -2.0573,-5.57291 2.63021,2.39583 2.63021,6.09375 0,5.98958 -7.6302,9.08853 z"
         style="font-weight:normal;font-family:Algerian;-inkscape-font-specification:'Algerian, Normal';fill-opacity:1;stroke:none"
         id="path17842" />
      <path
         d="m 363.04005,123.21319 0.28646,0.28645 q -3.41146,3.28125 -5.57292,7.03125 -2.16145,3.75 -5.18228,11.71874 l -7.60417,19.89582 3.09896,2.70834 h -12.0052 l 3.4375,-2.83854 -9.53125,-27.1354 -4.01041,-3.4375 h 12.91666 l -3.67188,3.67187 8.59375,24.45311 1.01562,-2.42187 -7.68228,-21.66666 2.65624,-2.6302 0.46875,0.49479 -2.3177,2.29166 7.21354,20.59895 5.52083,-14.73957 q 2.47395,-6.5625 2.47395,-9.19271 0,-2.65625 -1.95312,-4.55729 l 0.49479,-0.10416 q 7.57812,-1.45834 11.35416,-4.42708 z m 1.40625,1.58854 0.23437,0.59896 q -4.97395,3.8802 -10.26041,17.70832 l -7.34374,19.14061 4.06249,4.73958 h -13.43749 l -0.57291,-0.70312 h 12.47395 l -3.28125,-3.85417 7.47395,-19.50519 1.40625,-3.69792 q 1.875,-4.79166 4.42708,-8.74999 2.55208,-3.98438 4.81771,-5.67708 z"
         style="font-weight:normal;font-family:Algerian;-inkscape-font-specification:'Algerian, Normal';fill-opacity:1;stroke:none"
         id="path17844" />
      <path
         d="m 385.43589,131.44235 -2.70833,3.07291 4.27083,11.35416 1.04166,-0.57291 -3.85416,-10.26041 2.76041,-3.17709 0.67709,0.28646 -2.63021,3.04688 3.64583,9.71353 q 0.3125,-0.23437 0.36459,-0.28646 l 0.85937,-0.72916 q 0.78125,-0.625 0.98958,-0.88542 0.67709,2.96875 2.08333,5.3125 -0.7552,-0.0521 -1.09374,-0.0521 -2.47396,0 -3.61979,0.78125 l 4.71353,12.78646 3.90625,3.02083 H 383.6911 l 3.59375,-3.02083 -2.89063,-7.60417 q -2.86458,2.89063 -4.40104,5.49479 l -0.59895,-0.15625 q 1.53645,-2.55208 4.58333,-5.70312 l 0.20833,-0.26042 -0.49479,-1.14583 q -3.09896,2.57812 -5.13021,5.98958 l -0.46875,-0.75521 q -1.35416,-2.16145 -3.46354,-4.92187 l -0.26041,-0.3125 q -2.00521,4.45312 -2.00521,7.23958 0,1.64062 0.54687,2.78646 0.57292,1.11979 2.70834,3.77604 0.18229,0.23437 0.57291,0.72916 h -14.06249 l -0.52083,-0.70312 h 13.2552 l -0.44271,-0.54688 q -1.71875,-2.08333 -2.26562,-3.22916 -0.52084,-1.17188 -0.52084,-2.73438 0,-2.65624 2.16146,-7.91666 l -1.14583,-1.19791 q -0.33854,0.83333 -0.85938,2.44791 l -0.85937,2.65625 q -0.70313,2.13542 -0.70313,3.54166 0,1.45834 0.4948,2.42188 0.49479,0.96354 2.08333,2.63021 0.15625,0.15625 0.46875,0.49479 h -13.02083 q 3.72396,-1.92709 5.88542,-5.18229 2.18749,-3.25521 4.32291,-10.05208 l 0.10417,-0.36458 q -1.38021,-1.17188 -3.98438,-1.43229 1.43229,-2.13542 2.21354,-4.45313 0.36459,0.33855 0.44271,0.41667 l 1.17188,1.09375 q 0.59895,0.57292 1.43229,1.17187 l 0.46875,-1.14583 -0.3125,-0.26041 q -1.30209,-1.14584 -2.1875,-1.84896 l -0.23438,-0.18229 0.41667,-0.57292 q 1.38021,0.91146 2.65625,2.10937 l 3.54166,-9.73957 -2.76041,-2.96875 z m -6.43229,8.35937 -2.86458,7.55208 q 0.23437,0.26041 0.26042,0.3125 l 1.0677,1.19791 q 0.85938,0.9375 2.1875,2.91667 l 0.26042,0.39062 q 1.11979,-1.40625 2.65625,-2.78645 z m -1.17187,-3.02083 -4.14063,10.93749 q 1.97917,2.03125 3.41146,4.01041 l 1.19792,1.66667 q 0.026,0.026 0.26041,0.33854 0.23438,-0.23437 0.26042,-0.28646 l 0.36458,-0.4427 q 0.0781,-0.10417 0.28646,-0.33855 -1.82291,-2.81249 -4.24479,-5.07812 l 3.33333,-8.80208 z m 15.31249,7.47395 q 0.57291,2.34375 2.86458,6.43229 -0.57292,-0.0781 -0.65104,-0.0781 l -2.10938,-0.18229 q -1.43229,-0.13021 -2.08333,-0.13021 -0.10416,0 -0.52083,0.026 l 4.34896,11.53645 5.80728,5.1302 h -15.07811 l -0.49479,-0.70312 h 13.82811 l -4.68749,-4.14063 -4.63542,-12.26561 q 0.88542,-0.23438 2.03125,-0.23438 1.40625,0 3.125,0.23438 l -0.3125,-0.57292 q -1.66667,-3.07291 -2.23958,-5.54687 z"
         style="font-weight:normal;font-family:Algerian;-inkscape-font-specification:'Algerian, Normal';fill-opacity:1;stroke:none"
         id="path17846" />
      <path
         d="m 401.68585,131.44235 h 12.44791 l -3.67187,3.5677 v 27.83853 h 0.20833 l 0.9375,0.0781 h 0.23438 v -27.65623 l 2.81249,-2.83854 0.36459,0.57292 -2.52604,2.57812 v 27.34373 q 1.17187,0.10417 2.23958,0.10417 4.14062,0 6.25,-1.82291 2.13541,-1.84896 2.86458,-6.06771 2.44791,7.10937 5.02604,9.71354 h -27.18749 l 3.59375,-2.94271 v -27.16144 z m 29.73957,33.2031 -1.17188,2.34375 h -27.18748 l -0.65104,-0.70312 h 27.55207 l 0.7552,-1.64063 q -2.86458,-3.51562 -4.58333,-7.83853 l -0.10416,-0.28646 0.83333,0.3125 0.18229,0.44271 q 1.74479,3.85416 4.16667,7.10937 z"
         style="font-weight:normal;font-family:Algerian;-inkscape-font-specification:'Algerian, Normal';fill-opacity:1;stroke:none"
         id="path17848" />
      <path
         d="m 430.87857,131.44235 h 12.44791 l -3.67187,3.5677 v 27.83853 h 0.20833 l 0.9375,0.0781 h 0.23438 v -27.65623 l 2.81249,-2.83854 0.36459,0.57292 -2.52604,2.57812 v 27.34373 q 1.17187,0.10417 2.23958,0.10417 4.14062,0 6.24999,-1.82291 2.13542,-1.84896 2.86459,-6.06771 2.44791,7.10937 5.02603,9.71354 h -27.18748 l 3.59375,-2.94271 v -27.16144 z m 29.73957,33.2031 -1.17188,2.34375 h -27.18748 l -0.65104,-0.70312 h 27.55206 l 0.75521,-1.64063 q -2.86458,-3.51562 -4.58333,-7.83853 l -0.10417,-0.28646 0.83334,0.3125 0.18229,0.44271 q 1.74479,3.85416 4.16666,7.10937 z"
         style="font-weight:normal;font-family:Algerian;-inkscape-font-specification:'Algerian, Normal';fill-opacity:1;stroke:none"
         id="path17850" />
      <path
         d="m 488.30041,131.44235 -0.41667,0.49479 q -2.65625,3.25521 -4.21874,7.47395 -0.26042,-0.59895 -0.39063,-0.88541 -1.43229,-3.125 -3.07291,-4.03646 -1.64063,-0.91146 -5.88542,-0.91146 -1.95312,0 -4.68749,0.13021 v 11.97916 h 1.66666 v -10.59895 q 1.97917,-0.18229 3.77604,-0.18229 3.30729,0 4.86979,0.70312 1.5625,0.70313 2.78646,2.73438 -0.36459,-0.26042 -0.52084,-0.39063 -2.10937,-1.66666 -3.04687,-1.97916 -0.9375,-0.3125 -3.69792,-0.3125 -0.83333,0 -2.96874,0.10416 l -0.54688,0.026 v 9.89583 h 4.79167 l 3.35937,-4.60937 v 11.22395 l -3.35937,-4.34895 h -7.10937 v 14.60936 h 1.66666 v -13.38541 h 5.65104 l 0.67708,0.67709 h -5.67708 v 12.70832 q 5.3125,0 7.55208,-0.75521 2.23958,-0.7552 3.51562,-2.96874 l 1.38021,-2.3698 q 0.0781,-0.15624 0.3125,-0.57291 0.67708,2.86458 1.66667,4.58333 1.01562,1.71875 3.33333,4.01041 h -29.19269 l 3.95833,-3.02083 V 149.8538 q -2.1875,0.26041 -3.95833,1.35416 l -0.36459,-0.54687 q 1.58854,-1.14584 4.32292,-1.48438 v -1.22395 q -0.44271,-0.0521 -0.625,-0.0521 -2.65625,0 -4.84375,1.95313 1.19792,-4.16667 5.46875,-4.16667 v -11.11978 l -3.95833,-3.125 z m 1.25,1.82291 -0.18229,0.23438 q -3.17708,4.27083 -4.24479,7.16145 l -0.44271,-0.54687 q 1.74479,-4.03646 4.50521,-7.39583 z m -7.65625,8.67187 v 11.51041 l -0.65104,-0.33854 v -11.51041 z m 10.78125,22.70832 -1.35417,2.34375 h -28.43748 l -0.41667,-0.70312 h 28.51561 l 0.88542,-1.64063 q -3.75,-3.46354 -5.28646,-7.39583 l 0.83333,0.3125 q 1.43229,3.33334 4.84375,6.66667 z"
         style="font-weight:normal;font-family:Algerian;-inkscape-font-specification:'Algerian, Normal';fill-opacity:1;stroke:none"
         id="path17852" />
      <path
         d="m 529.62849,122.27569 0.15625,0.20833 -0.26042,0.28646 q -4.66145,4.84375 -7.68229,9.84374 -1.17187,1.90104 -1.66666,2.70833 l -9.6875,15.49479 v 10.57291 l 3.77604,3.46354 h -12.68228 l 3.75,-3.46354 v -10.57291 l -6.25,-9.60937 -1.35416,-2.16146 q -1.84896,-2.89062 -3.04688,-4.21875 -1.17187,-1.32812 -3.48958,-3.15104 l -0.28646,-0.23437 h 13.15104 l -3.22917,3.35937 8.67187,13.07291 0.83333,-1.32812 -7.73437,-11.74479 2.73438,-2.60416 0.54687,0.41666 -2.36979,2.1875 7.21354,11.11979 5.83333,-9.19271 q 2.52604,-4.01041 2.52604,-5.98958 0,-1.66666 -2.21354,-3.80208 7.57812,-1.82291 12.44791,-4.5052 z m 1.17187,1.5625 v 1.0677 l -0.26041,0.26042 q -2.1875,2.08333 -3.77604,4.16666 -1.5625,2.08334 -4.66146,7.00521 l -9.42708,14.84374 v 10.20833 l 4.63542,5.59895 h -16.30208 l -0.3125,-0.70312 h 15.23437 l -3.95833,-4.89583 v -10.39062 l 9.60937,-15.15624 1.51041,-2.39583 q 4.03646,-6.43229 7.70833,-9.60937 z"
         style="font-weight:normal;font-family:Algerian;-inkscape-font-specification:'Algerian, Normal';fill-opacity:1;stroke:none"
         id="path17854" />
      <path
         d="m 565.22743,131.72881 q -1.35416,1.82291 -2.16145,3.80208 -1.58854,3.90625 -2.10938,4.79166 l -0.13021,0.15625 q -0.10416,-0.28646 -0.15625,-0.44271 -0.72916,-2.34375 -1.19791,-3.2552 -0.46875,-0.91146 -1.40625,-1.74479 -2.36979,-2.10938 -5.39062,-2.10938 -2.78646,0 -4.63542,1.5625 -1.84895,1.53646 -1.84895,3.88021 0,4.37499 6.58853,5.96354 l 4.40104,1.0677 q 9.40104,2.26563 9.40104,9.92187 0,4.27083 -3.22917,7.1875 -3.20312,2.89062 -7.9427,2.89062 -2.96875,0 -6.64062,-0.91146 l -3.04687,-0.7552 q -1.84896,-0.44271 -3.04688,-0.44271 -1.58854,0 -3.28124,1.01562 l -0.20834,-0.36458 q 3.22917,-4.86979 4.53125,-9.27083 l 0.46875,0.13021 q 0.54687,4.08854 3.28125,6.35416 2.73437,2.26563 7.16145,2.26563 3.48958,0 5.54687,-1.61459 2.05729,-1.61458 2.05729,-4.34895 0,-3.15104 -2.86458,-5.20833 -2.05729,-1.45834 -8.43749,-2.70833 -4.92188,-0.96355 -7.13542,-3.20313 -2.21354,-2.23958 -2.21354,-6.22395 0,-4.11458 2.94271,-6.66666 2.96875,-2.57813 7.70833,-2.57813 3.04687,0 7.10937,1.09375 1.90104,0.52083 2.8125,0.52083 1.27604,0 2.78646,-0.88541 z m 1.61459,1.09375 -0.23438,0.39062 q -1.06771,1.79687 -1.82291,3.4375 -1.82292,3.82812 -2.0573,4.27083 l -0.1302,0.18229 -0.625,-0.26042 0.10416,-0.23437 q 0.75521,-1.71875 2.1875,-4.47916 l 1.77083,-3.4375 0.13021,-0.20834 z m -7.60417,5.18228 q -2.86458,-3.04687 -6.14583,-3.04687 -1.97916,0 -3.28124,1.14583 -1.30209,1.14584 -1.30209,2.91667 0,1.92708 2.63021,3.95833 l 0.20833,0.13021 -0.1302,0.20833 q -3.4375,-1.53646 -3.4375,-4.45312 0,-2.03125 1.45833,-3.30729 1.45833,-1.27604 3.80208,-1.27604 2.23958,0 3.90625,0.96354 1.69271,0.9375 2.47396,2.65625 z m 5.98958,10.33854 q 3.54167,2.68229 3.54167,7.34375 0,4.97395 -3.85417,8.43749 -3.85416,3.4375 -9.37499,3.4375 -2.8125,0 -5.07812,-0.57292 l -4.16667,-1.01562 q -1.45833,-0.36459 -3.125,-0.36459 -1.48437,0 -2.73437,0.59896 l -0.3125,-0.75521 q 1.35417,-0.625 2.76042,-0.625 1.5625,0 3.5677,0.46875 l 4.01042,0.96355 q 2.39583,0.57291 5.05208,0.57291 5.20833,0 8.85416,-3.30729 3.67187,-3.33333 3.67187,-8.04687 0,-3.98437 -2.8125,-6.97916 z m -18.54165,7.5 q 0.96354,4.68749 5.15624,6.64062 v 0.20833 q -4.84374,-1.40625 -5.85937,-6.71875 z m -3.25521,-8.4375 0.88542,0.49479 q 0.85937,1.53646 5.02604,2.55208 l 4.1927,1.04167 q 4.27083,1.06771 5.67708,1.84896 1.43229,0.7552 2.03125,2.3177 l -0.18229,0.10417 q -1.17187,-1.35417 -2.55208,-1.97917 -1.35417,-0.62499 -5.23437,-1.53645 -5.625,-1.30209 -7.55208,-2.23958 -1.92709,-0.96355 -2.29167,-2.60417 z"
         style="font-weight:normal;font-family:Algerian;-inkscape-font-specification:'Algerian, Normal';fill-opacity:1;stroke:none"
         id="path17856" />
      <path
         d="m 599.39408,131.44235 q -0.23438,0.44271 -0.3125,0.59896 l -1.77083,3.12499 q -0.91146,1.66667 -1.69271,4.16667 l -0.0521,0.13021 -0.26041,-0.18229 -0.0781,-0.33855 q -0.7552,-2.96874 -2.16145,-4.11458 -1.38021,-1.14583 -4.24479,-1.14583 -1.17188,0 -2.34375,0.10417 h -0.3125 v 28.22915 l 3.07291,2.83854 H 577.3368 l 3.64583,-3.04688 v -25.91144 l -1.84896,-0.026 q -2.68229,0 -3.82812,1.06771 -1.11979,1.04166 -1.32812,3.69791 h -0.67709 q 0.28646,-3.04687 1.5625,-4.24479 1.30208,-1.19791 4.27083,-1.19791 l 1.5625,0.026 h 0.28646 v -1.27604 q -1.32812,-0.15625 -2.52604,-0.15625 -3.35937,0 -4.84375,1.3802 -1.48437,1.35417 -1.64062,4.60938 h -0.3125 q -1.11979,-3.61979 -3.46354,-8.07292 l -0.15625,-0.26041 z m 1.64062,1.64062 q -1.79687,2.29167 -3.77604,7.60416 l -0.10416,0.26042 -0.57292,-0.49479 0.0781,-0.23438 q 1.92709,-5.39062 3.72396,-7.49999 l 0.13021,-0.15625 z m -6.95312,4.0625 q -2.00521,-1.30208 -4.6875,-1.30208 -0.59895,0 -1.25,0.0781 l 0.10417,26.17186 4.14062,4.89583 h -13.30728 l -0.59896,-0.70312 h 12.47395 L 587.467,162.3017 v -27.1354 l 1.40625,-0.026 q 2.52604,0 3.56771,0.41667 1.0677,0.39062 1.64062,1.58854 z"
         style="font-weight:normal;font-family:Algerian;-inkscape-font-specification:'Algerian, Normal';fill-opacity:1;stroke:none"
         id="path17858" />
      <path
         d="m 601.21698,131.44235 h 12.34374 l -3.48958,3.54166 v 27.10936 l 3.28125,2.76042 h -12.13541 l 3.61979,-2.99479 v -27.16145 z m 13.51562,1.48437 -2.65625,2.63021 v 26.53644 l 4.375,4.89583 h -13.54166 l -0.65104,-0.70312 h 12.65624 l -3.56771,-3.93229 v -27.03124 l 2.94271,-2.91666 z"
         style="font-weight:normal;font-family:Algerian;-inkscape-font-specification:'Algerian, Normal';fill-opacity:1;stroke:none"
         id="path17860" />
      <path
         d="m 617.51904,131.44235 h 12.44791 l -3.67187,3.5677 v 27.83853 h 0.20833 l 0.9375,0.0781 h 0.23438 v -27.65623 l 2.8125,-2.83854 0.36458,0.57292 -2.52604,2.57812 v 27.34373 q 1.17187,0.10417 2.23958,0.10417 4.14062,0 6.25,-1.82291 2.13541,-1.84896 2.86458,-6.06771 2.44791,7.10937 5.02604,9.71354 h -27.18749 l 3.59375,-2.94271 v -27.16144 z m 29.73957,33.2031 -1.17188,2.34375 h -27.18748 l -0.65104,-0.70312 h 27.55207 l 0.7552,-1.64063 q -2.86458,-3.51562 -4.58333,-7.83853 l -0.10416,-0.28646 0.83333,0.3125 0.18229,0.44271 q 1.74479,3.85416 4.16667,7.10937 z"
         style="font-weight:normal;font-family:Algerian;-inkscape-font-specification:'Algerian, Normal';fill-opacity:1;stroke:none"
         id="path17862" />
      <path
         d="m 646.71179,131.44235 h 12.44791 l -3.67187,3.5677 v 27.83853 h 0.20833 l 0.9375,0.0781 h 0.23438 v -27.65623 l 2.81249,-2.83854 0.36459,0.57292 -2.52604,2.57812 v 27.34373 q 1.17187,0.10417 2.23958,0.10417 4.14062,0 6.25,-1.82291 2.13541,-1.84896 2.86458,-6.06771 2.44791,7.10937 5.02604,9.71354 h -27.18749 l 3.59375,-2.94271 v -27.16144 z m 29.73957,33.2031 -1.17188,2.34375 H 648.092 l -0.65104,-0.70312 h 27.55207 l 0.7552,-1.64063 q -2.86458,-3.51562 -4.58333,-7.83853 l -0.10416,-0.28646 0.83333,0.3125 0.18229,0.44271 q 1.74479,3.85416 4.16666,7.10937 z"
         style="font-weight:normal;font-family:Algerian;-inkscape-font-specification:'Algerian, Normal';fill-opacity:1;stroke:none"
         id="path17864" />
      <path
         d="m 700.35759,131.72881 q -1.35416,1.82291 -2.16146,3.80208 -1.58854,3.90625 -2.10937,4.79166 l -0.13021,0.15625 q -0.10416,-0.28646 -0.15625,-0.44271 -0.72916,-2.34375 -1.19791,-3.2552 -0.46875,-0.91146 -1.40625,-1.74479 -2.36979,-2.10938 -5.39062,-2.10938 -2.78646,0 -4.63542,1.5625 -1.84896,1.53646 -1.84896,3.88021 0,4.37499 6.58854,5.96354 l 4.40104,1.0677 q 9.40104,2.26563 9.40104,9.92187 0,4.27083 -3.22917,7.1875 -3.20312,2.89062 -7.9427,2.89062 -2.96875,0 -6.64062,-0.91146 l -3.04688,-0.7552 q -1.84895,-0.44271 -3.04687,-0.44271 -1.58854,0 -3.28125,1.01562 l -0.20833,-0.36458 q 3.22916,-4.86979 4.53125,-9.27083 l 0.46875,0.13021 q 0.54687,4.08854 3.28124,6.35416 2.73438,2.26563 7.16146,2.26563 3.48958,0 5.54687,-1.61459 2.05729,-1.61458 2.05729,-4.34895 0,-3.15104 -2.86458,-5.20833 -2.05729,-1.45834 -8.4375,-2.70833 -4.92187,-0.96355 -7.13541,-3.20313 -2.21354,-2.23958 -2.21354,-6.22395 0,-4.11458 2.94271,-6.66666 2.96875,-2.57813 7.70833,-2.57813 3.04687,0 7.10937,1.09375 1.90104,0.52083 2.8125,0.52083 1.27604,0 2.78645,-0.88541 z m 1.61458,1.09375 -0.23437,0.39062 q -1.06771,1.79687 -1.82292,3.4375 -1.82291,3.82812 -2.05729,4.27083 l -0.13021,0.18229 -0.625,-0.26042 0.10417,-0.23437 q 0.75521,-1.71875 2.1875,-4.47916 l 1.77083,-3.4375 0.13021,-0.20834 z m -7.60416,5.18228 q -2.86458,-3.04687 -6.14583,-3.04687 -1.97916,0 -3.28125,1.14583 -1.30208,1.14584 -1.30208,2.91667 0,1.92708 2.63021,3.95833 l 0.20833,0.13021 -0.13021,0.20833 q -3.4375,-1.53646 -3.4375,-4.45312 0,-2.03125 1.45834,-3.30729 1.45833,-1.27604 3.80208,-1.27604 2.23958,0 3.90625,0.96354 1.6927,0.9375 2.47395,2.65625 z m 5.98958,10.33854 q 3.54167,2.68229 3.54167,7.34375 0,4.97395 -3.85417,8.43749 -3.85416,3.4375 -9.37499,3.4375 -2.8125,0 -5.07813,-0.57292 l -4.16666,-1.01562 q -1.45833,-0.36459 -3.125,-0.36459 -1.48437,0 -2.73437,0.59896 l -0.3125,-0.75521 q 1.35417,-0.625 2.76041,-0.625 1.5625,0 3.56771,0.46875 l 4.01041,0.96355 q 2.39584,0.57291 5.05209,0.57291 5.20833,0 8.85416,-3.30729 3.67187,-3.33333 3.67187,-8.04687 0,-3.98437 -2.8125,-6.97916 z m -18.54165,7.5 q 0.96354,4.68749 5.15624,6.64062 v 0.20833 q -4.84374,-1.40625 -5.85937,-6.71875 z m -3.25521,-8.4375 0.88542,0.49479 q 0.85937,1.53646 5.02603,2.55208 l 4.19271,1.04167 q 4.27083,1.06771 5.67708,1.84896 1.43229,0.7552 2.03125,2.3177 l -0.18229,0.10417 q -1.17188,-1.35417 -2.55209,-1.97917 -1.35416,-0.62499 -5.23437,-1.53645 -5.62499,-1.30209 -7.55208,-2.23958 -1.92708,-0.96355 -2.29166,-2.60417 z"
         style="font-weight:normal;font-family:Algerian;-inkscape-font-specification:'Algerian, Normal';fill-opacity:1;stroke:none"
         id="path17866" />
    </g>
  </g>
</svg>
